# This file uses centimeters as units for non-parametric coordinates.

mtllib sm_traintrack.mtl
g default
v -2.043897 -2.391476 222.399876
v 2.043897 -2.391476 222.399876
v -2.043897 2.391476 222.399876
v 2.043897 2.391476 222.399876
v -2.043897 2.391476 -222.399876
v 2.043897 2.391476 -222.399876
v -2.043897 -2.391476 -222.399876
v 2.043897 -2.391476 -222.399876
v -4.458572 4.446816 222.399876
v 4.458572 4.446816 222.399876
v 4.458572 4.446816 -222.399876
v -4.458572 4.446816 -222.399876
v -4.458572 -4.446816 -222.399876
v 4.458572 -4.446816 -222.399876
v 4.458572 -4.446816 222.399876
v -4.458572 -4.446816 222.399876
v 4.458572 2.391476 222.399876
v 4.458572 2.391476 -222.399876
v -4.458572 2.391476 222.399876
v -4.458572 2.391476 -222.399876
v 4.458572 -2.391476 -222.399876
v 4.458572 -2.391476 222.399876
v -4.458572 -2.391476 -222.399876
v -4.458572 -2.391476 222.399876
vt 0.375000 0.000000
vt 0.625000 0.000000
vt 0.375000 0.250000
vt 0.625000 0.250000
vt 0.375000 0.500000
vt 0.625000 0.500000
vt 0.375000 0.750000
vt 0.625000 0.750000
vt 0.375000 1.000000
vt 0.625000 1.000000
vt 0.875000 0.000000
vt 0.875000 0.250000
vt 0.125000 0.000000
vt 0.125000 0.250000
vt 0.346755 0.250004
vt 0.654020 0.250004
vt 0.649993 0.499996
vt 0.347083 0.499996
vt 0.347083 0.750004
vt 0.649993 0.750004
vt 0.654020 0.999996
vt 0.346755 0.999996
vt 0.625000 0.250000
vt 0.625000 0.500000
vt 0.375000 0.500000
vt 0.375000 0.250000
vt 0.625000 0.750000
vt 0.625000 1.000000
vt 0.375000 1.000000
vt 0.375000 0.750000
vn 0.000000 0.000000 1.000000
vn 0.000000 0.000000 1.000000
vn 0.000000 0.000000 1.000000
vn 0.000000 0.000000 1.000000
vn 0.000000 1.000000 0.000000
vn 0.000000 1.000000 0.000000
vn 0.000000 1.000000 0.000000
vn 0.000000 1.000000 0.000000
vn 0.000000 0.000000 -1.000000
vn 0.000000 0.000000 -1.000000
vn 0.000000 0.000000 -1.000000
vn 0.000000 0.000000 -1.000000
vn 1.000000 0.000000 0.000000
vn 1.000000 0.000000 0.000000
vn 1.000000 0.000000 0.000000
vn 1.000000 0.000000 0.000000
vn -1.000000 0.000000 0.000000
vn -1.000000 0.000000 0.000000
vn -1.000000 0.000000 0.000000
vn -1.000000 0.000000 0.000000
vn 0.000000 0.000000 1.000000
vn 0.000000 0.000000 1.000000
vn 0.000000 0.000000 1.000000
vn 0.000000 0.000000 1.000000
vn 1.000000 0.000000 0.000000
vn 1.000000 0.000000 0.000000
vn 1.000000 0.000000 0.000000
vn 1.000000 0.000000 0.000000
vn 0.000000 0.000000 -1.000000
vn 0.000000 0.000000 -1.000000
vn 0.000000 0.000000 -1.000000
vn 0.000000 0.000000 -1.000000
vn -1.000000 0.000000 0.000000
vn -1.000000 0.000000 0.000000
vn -1.000000 0.000000 0.000000
vn -1.000000 0.000000 0.000000
vn 0.000000 0.000000 -1.000000
vn 0.000000 0.000000 -1.000000
vn 0.000000 0.000000 -1.000000
vn 0.000000 0.000000 -1.000000
vn 1.000000 0.000000 0.000000
vn 1.000000 0.000000 0.000000
vn 1.000000 0.000000 0.000000
vn 1.000000 0.000000 0.000000
vn 0.000000 0.000000 1.000000
vn 0.000000 0.000000 1.000000
vn 0.000000 0.000000 1.000000
vn 0.000000 0.000000 1.000000
vn -1.000000 0.000000 0.000000
vn -1.000000 0.000000 0.000000
vn -1.000000 0.000000 0.000000
vn -1.000000 0.000000 0.000000
vn 0.000000 -1.000000 0.000000
vn 0.000000 -1.000000 0.000000
vn 0.000000 -1.000000 0.000000
vn 0.000000 -1.000000 0.000000
vn 0.000000 0.000000 -1.000000
vn 0.000000 0.000000 -1.000000
vn 0.000000 0.000000 -1.000000
vn 0.000000 0.000000 1.000000
vn 0.000000 0.000000 1.000000
vn 0.000000 0.000000 1.000000
vn 0.000000 -1.000000 0.000000
vn 0.000000 -1.000000 0.000000
vn 0.000000 -1.000000 0.000000
vn 0.000000 -1.000000 0.000000
vn 0.000000 0.000000 1.000000
vn 0.000000 0.000000 1.000000
vn 0.000000 0.000000 1.000000
vn 0.000000 0.000000 -1.000000
vn 0.000000 0.000000 -1.000000
vn 0.000000 0.000000 -1.000000
vn 0.000000 1.000000 0.000000
vn 0.000000 1.000000 0.000000
vn 0.000000 1.000000 0.000000
vn 0.000000 1.000000 0.000000
vn 0.000000 0.000000 1.000000
vn 0.000000 0.000000 1.000000
vn 0.000000 0.000000 1.000000
vn 0.000000 0.000000 -1.000000
vn 0.000000 0.000000 -1.000000
vn 0.000000 0.000000 -1.000000
vn 0.000000 1.000000 0.000000
vn 0.000000 1.000000 0.000000
vn 0.000000 1.000000 0.000000
vn 0.000000 1.000000 0.000000
vn 0.000000 0.000000 -1.000000
vn 0.000000 0.000000 -1.000000
vn 0.000000 0.000000 -1.000000
vn 0.000000 0.000000 1.000000
vn 0.000000 0.000000 1.000000
vn 0.000000 0.000000 1.000000
s off
g pCube1
usemtl initialShadingGroup
f 1/1/1 2/2/2 4/4/3 3/3/4
f 9/15/5 10/16/6 11/17/7 12/18/8
f 5/5/9 6/6/10 8/8/11 7/7/12
f 2/2/13 8/11/14 6/12/15 4/4/16
f 7/13/17 1/1/18 3/3/19 5/14/20
f 3/3/21 4/4/22 10/16/23 9/15/24
f 17/23/25 18/24/26 11/17/27 10/16/28
f 6/6/29 5/5/30 12/18/31 11/17/32
f 20/25/33 19/26/34 9/15/35 12/18/36
f 7/7/37 8/8/38 14/20/39 13/19/40
f 21/27/41 22/28/42 15/21/43 14/20/44
f 2/10/45 1/9/46 16/22/47 15/21/48
f 24/29/49 23/30/50 13/19/51 16/22/52
f 4/4/53 6/6/54 18/24/55 17/23/56
f 6/6/57 11/17/58 18/24/59
f 10/16/60 4/4/61 17/23/62
f 5/5/63 3/3/64 19/26/65 20/25/66
f 3/3/67 9/15/68 19/26/69
f 12/18/70 5/5/71 20/25/72
f 8/8/73 2/10/74 22/28/75 21/27/76
f 2/10/77 15/21/78 22/28/79
f 14/20/80 8/8/81 21/27/82
f 1/9/83 7/7/84 23/30/85 24/29/86
f 7/7/87 13/19/88 23/30/89
f 16/22/90 1/9/91 24/29/92
